<svg width="70" height="9" viewBox="0 0 70 9" fill="" xmlns="http://www.w3.org/2000/svg">
<path d="M2.42303 8.04872V1.95469H0V0H7.08447V1.95469H4.66145V8.04872H2.42303Z" fill=""/>
<path d="M8.06703 8.04872V0H11.8862C13.0631 0 13.94 0.287455 14.5169 0.862364C14.9938 1.33762 15.2323 1.97385 15.2323 2.77106C15.2323 3.95154 14.6784 4.77558 13.5708 5.24317L15.4976 8.04872H12.9131L11.2862 5.61111H10.3054V8.04872H8.06703ZM10.3054 3.86339H11.7823C12.1593 3.86339 12.4516 3.77907 12.6592 3.61043C12.8746 3.43412 12.9823 3.19266 12.9823 2.88604C12.9823 2.57176 12.8746 2.33413 12.6592 2.17316C12.4516 2.01218 12.1554 1.93169 11.7708 1.93169H10.3054V3.86339Z" fill=""/>
<path d="M19.9947 8.1982C18.8101 8.1982 17.8909 7.89158 17.237 7.27835C16.5832 6.66511 16.2563 5.74525 16.2563 4.51878V0H18.5293V4.47279C18.5293 5.04003 18.6601 5.4693 18.9216 5.76059C19.1908 6.04421 19.5562 6.18602 20.0177 6.18602C20.4793 6.18602 20.8408 6.04804 21.1023 5.77208C21.3716 5.49613 21.5062 5.08219 21.5062 4.53028V0H23.7792V4.46129C23.7792 5.71843 23.4446 6.65744 22.7754 7.27835C22.1139 7.89158 21.187 8.1982 19.9947 8.1982Z" fill=""/>
<path d="M25.1039 8.04872V0H31.6V1.8972H27.3193V3.11601H31.1961V4.87523H27.3193V6.15152H31.6577V8.04872H25.1039Z" fill=""/>
<path d="M35.8193 8.06232V0.135881H41.6359V0.962495H36.7329V3.79337H41.1155V4.60866H36.7329V8.06232H35.8193Z" fill=""/>
<path d="M49.9687 6.99791C49.1901 7.7981 48.1994 8.1982 46.9968 8.1982C45.7942 8.1982 44.8074 7.7981 44.0365 6.99791C43.2656 6.19772 42.8801 5.23145 42.8801 4.0991C42.8801 2.9743 43.2695 2.0118 44.0481 1.21161C44.8267 0.403871 45.8173 0 47.0199 0C48.2226 0 49.2093 0.400096 49.9802 1.20029C50.7512 2.00048 51.1366 2.96675 51.1366 4.0991C51.1366 5.2239 50.7473 6.19017 49.9687 6.99791ZM44.7303 6.42041C45.3394 7.05453 46.1026 7.37158 47.0199 7.37158C47.9373 7.37158 48.6928 7.0583 49.2864 6.43174C49.8877 5.79762 50.1884 5.02007 50.1884 4.0991C50.1884 3.18567 49.8839 2.4119 49.2749 1.77779C48.6735 1.14367 47.9142 0.826613 46.9968 0.826613C46.0794 0.826613 45.3201 1.14367 44.7188 1.77779C44.1252 2.40435 43.8284 3.17812 43.8284 4.0991C43.8284 5.01253 44.129 5.7863 44.7303 6.42041Z" fill=""/>
<path d="M59.7933 6.99791C59.0147 7.7981 58.0241 8.1982 56.8214 8.1982C55.6188 8.1982 54.632 7.7981 53.8611 6.99791C53.0902 6.19772 52.7048 5.23145 52.7048 4.0991C52.7048 2.9743 53.0941 2.0118 53.8727 1.21161C54.6513 0.403871 55.6419 0 56.8446 0C58.0472 0 59.0339 0.400096 59.8049 1.20029C60.5758 2.00048 60.9612 2.96675 60.9612 4.0991C60.9612 5.2239 60.5719 6.19017 59.7933 6.99791ZM54.5549 6.42041C55.164 7.05453 55.9272 7.37158 56.8446 7.37158C57.7619 7.37158 58.5174 7.0583 59.111 6.43174C59.7124 5.79762 60.013 5.02007 60.013 4.0991C60.013 3.18567 59.7085 2.4119 59.0995 1.77779C58.4982 1.14367 57.7388 0.826613 56.8214 0.826613C55.904 0.826613 55.1447 1.14367 54.5434 1.77779C53.9498 2.40435 53.653 3.17812 53.653 4.0991C53.653 5.01253 53.9536 5.7863 54.5549 6.42041Z" fill=""/>
<path d="M62.8878 8.06232V0.135881H65.6978C66.9621 0.135881 67.9951 0.513331 68.7969 1.26823C69.5986 2.01558 69.9995 2.9592 69.9995 4.0991C69.9995 5.23145 69.5948 6.17507 68.7853 6.92997C67.9836 7.68487 66.9544 8.06232 65.6978 8.06232H62.8878ZM63.8014 7.2357H65.6978C66.7077 7.2357 67.5172 6.94129 68.1262 6.35247C68.7429 5.7561 69.0513 5.00498 69.0513 4.0991C69.0513 3.20077 68.7429 2.45342 68.1262 1.85705C67.5095 1.26068 66.7 0.962495 65.6978 0.962495H63.8014V7.2357Z" fill=""/>
</svg>
