<svg width="20" height="20" viewBox="0 0 20 20" fill="" xmlns="http://www.w3.org/2000/svg">
    <path d="M19.2701 13.9172H18.0779V11.5491C18.0779 11.146 17.7511 10.8191 17.3479 10.8191H10.7299V8.02917H14.9392C15.3424 8.02917 15.6691 7.70236 15.6691 7.29925V1.50849C15.6691 1.10538 15.3424 0.778564 14.9392 0.778564H5.06083C4.65762 0.778564 4.3309 1.10538 4.3309 1.50849V7.29925C4.3309 7.70236 4.65762 8.02917 5.06083 8.02917H9.27007V10.8191H2.65207C2.24886 10.8191 1.92214 11.146 1.92214 11.5491V13.9172H0.729927C0.326715 13.9172 0 14.2441 0 14.6472V18.4915C0 18.8946 0.326715 19.2214 0.729927 19.2214H4.57421C4.97742 19.2214 5.30414 18.8946 5.30414 18.4915V14.6472C5.30414 14.2441 4.97742 13.9172 4.57421 13.9172H3.382V12.279H9.27007V13.9172H8.07786C7.67465 13.9172 7.34793 14.2441 7.34793 14.6472V18.4915C7.34793 18.8946 7.67465 19.2214 8.07786 19.2214H11.9221C12.3254 19.2214 12.6521 18.8946 12.6521 18.4915V14.6472C12.6521 14.2441 12.3254 13.9172 11.9221 13.9172H10.7299V12.279H16.618V13.9172H15.4258C15.0226 13.9172 14.6959 14.2441 14.6959 14.6472V18.4915C14.6959 18.8946 15.0226 19.2214 15.4258 19.2214H19.2701C19.6733 19.2214 20 18.8946 20 18.4915V14.6472C20 14.2441 19.6733 13.9172 19.2701 13.9172Z"
          fill=""/>
</svg>
