<svg width="20" height="20" viewBox="0 0 20 20" fill="" xmlns="http://www.w3.org/2000/svg">
    <g opacity="1" clip-path="url(#clip0)">
        <path d="M12.3904 12.4048C12.2068 12.5883 12.2068 12.8861 12.3904 13.0656L16.7265 17.4017L17.0977 17.0305L17.3873 16.7409L13.0553 12.4048C12.8717 12.2212 12.5739 12.2212 12.3904 12.4048Z"
              fill=""/>
        <path d="M19.9856 9.99796V9.06384C19.9856 8.71711 19.7327 8.41526 19.3901 8.35815L17.53 8.04813C17.3464 7.33429 17.0649 6.66123 16.6978 6.03712L17.791 4.49929C17.9909 4.21375 17.9583 3.82623 17.7135 3.58148L17.0568 2.92474L16.4 2.268C16.1553 2.02325 15.7678 1.99062 15.4822 2.19457L13.9444 3.28778C13.3203 2.91658 12.6472 2.64328 11.9334 2.45564L11.6193 0.595554C11.5622 0.248827 11.2644 0 10.9136 0H9.97949H9.04537C8.71088 0.0163165 8.4131 0.269223 8.35599 0.607791L8.04598 2.46788C7.33213 2.65144 6.65907 2.9329 6.03496 3.30002L4.49713 2.20681C4.21159 2.00693 3.82407 2.03957 3.57932 2.28432L2.92666 2.94922L2.26992 3.60596C2.02517 3.8507 1.99254 4.23822 2.1965 4.52376L3.28971 6.0616C2.91035 6.69386 2.62481 7.38324 2.4494 8.12156L0.609714 8.43565C0.267067 8.49276 0.0141602 8.79054 0.0141602 9.14134V10.0755V11.0096C0.0141602 11.3563 0.267067 11.6582 0.609714 11.7153L2.48612 12.0335C2.66968 12.7473 2.96745 13.4204 3.32642 14.0322L2.22505 15.5456C2.02517 15.8311 2.05781 16.2186 2.30256 16.4634L2.9593 17.1201L3.61604 17.7769C3.86079 18.0216 4.2483 18.0543 4.53384 17.8503L6.07983 16.7489C6.70394 17.112 7.377 17.3853 8.09085 17.5648L8.40494 19.4044C8.46613 19.7512 8.75983 20 9.11063 20H10.0448H10.9789C11.3256 20 11.6275 19.7471 11.6846 19.4044L12.0027 17.528C12.1659 17.4873 12.325 17.4383 12.48 17.3853C12.5208 17.373 12.5657 17.3567 12.6065 17.3404C12.737 17.2955 12.8634 17.2466 12.9899 17.1936C13.0184 17.1813 13.047 17.1691 13.0756 17.1568C13.2265 17.0916 13.3733 17.0222 13.5202 16.9488C13.5243 16.9447 13.5283 16.9447 13.5324 16.9406C13.6793 16.8672 13.8261 16.7856 13.9648 16.7041C14.0545 16.651 14.1443 16.5939 14.2299 16.5368L11.8314 14.1383C11.4031 13.71 10.8076 13.5019 10.1998 13.5427C9.17182 13.6121 8.1194 13.2572 7.33621 12.4699C6.38577 11.5195 6.06352 10.1734 6.36945 8.9537C6.38985 8.86396 6.50407 8.83541 6.56525 8.90067L8.06229 10.3977C8.50692 10.8423 9.24117 10.8423 9.68579 10.3936L10.367 9.71242C10.8157 9.26372 10.8157 8.53355 10.3711 8.08893L8.79654 6.51438C8.73535 6.45319 8.75983 6.34713 8.84141 6.31858C10.1182 5.91067 11.5744 6.20844 12.5861 7.22007C13.41 8.04405 13.7608 9.16174 13.6426 10.2386C13.5732 10.8791 13.7812 11.5195 14.2381 11.9763L16.5102 14.2484C16.5836 14.1342 16.653 14.02 16.7223 13.9058C16.7998 13.7712 16.8732 13.6365 16.9426 13.4979C16.963 13.4571 16.9834 13.4163 17.0038 13.3755C17.0486 13.2817 17.0894 13.1878 17.1343 13.0899C17.1669 13.0165 17.1996 12.939 17.2281 12.8656C17.2485 12.8166 17.2648 12.7636 17.2852 12.7106C17.326 12.6045 17.3627 12.4985 17.3994 12.3883C17.4443 12.2415 17.4892 12.0987 17.53 11.9519L19.3901 11.6378C19.7368 11.5807 19.9856 11.2829 19.9856 10.9321V9.99796Z"
              fill=""/>
    </g>
    <defs>
        <clipPath id="clip0">
            <rect width="20" height="20" fill=""/>
        </clipPath>
    </defs>
</svg>
